<?xml version="1.0" encoding="utf-8"?>
<svg xmlns="http://www.w3.org/2000/svg" xmlns:xlink="http://www.w3.org/1999/xlink" width="600" height="400" viewBox="0 0 2400 1600">
<defs>
  <clipPath id="clip9200">
    <rect x="0" y="0" width="2400" height="1600"/>
  </clipPath>
</defs>
<path clip-path="url(#clip9200)" d="
M0 1600 L2400 1600 L2400 0 L0 0  Z
  " fill="#ffffff" fill-rule="evenodd" fill-opacity="1"/>
<defs>
  <clipPath id="clip9201">
    <rect x="480" y="0" width="1681" height="1600"/>
  </clipPath>
</defs>
<path clip-path="url(#clip9200)" d="
M229.135 625.619 L2352.76 625.619 L2352.76 47.2441 L229.135 47.2441  Z
  " fill="#ffffff" fill-rule="evenodd" fill-opacity="1"/>
<defs>
  <clipPath id="clip9202">
    <rect x="229" y="47" width="2125" height="579"/>
  </clipPath>
</defs>
<polyline clip-path="url(#clip9202)" style="stroke:#000000; stroke-width:2; stroke-opacity:0.1; fill:none" points="
  289.238,625.619 289.238,47.2441 
  "/>
<polyline clip-path="url(#clip9202)" style="stroke:#000000; stroke-width:2; stroke-opacity:0.1; fill:none" points="
  790.092,625.619 790.092,47.2441 
  "/>
<polyline clip-path="url(#clip9202)" style="stroke:#000000; stroke-width:2; stroke-opacity:0.1; fill:none" points="
  1290.95,625.619 1290.95,47.2441 
  "/>
<polyline clip-path="url(#clip9202)" style="stroke:#000000; stroke-width:2; stroke-opacity:0.1; fill:none" points="
  1791.8,625.619 1791.8,47.2441 
  "/>
<polyline clip-path="url(#clip9202)" style="stroke:#000000; stroke-width:2; stroke-opacity:0.1; fill:none" points="
  2292.65,625.619 2292.65,47.2441 
  "/>
<polyline clip-path="url(#clip9202)" style="stroke:#000000; stroke-width:2; stroke-opacity:0.1; fill:none" points="
  229.135,609.25 2352.76,609.25 
  "/>
<polyline clip-path="url(#clip9202)" style="stroke:#000000; stroke-width:2; stroke-opacity:0.1; fill:none" points="
  229.135,493.974 2352.76,493.974 
  "/>
<polyline clip-path="url(#clip9202)" style="stroke:#000000; stroke-width:2; stroke-opacity:0.1; fill:none" points="
  229.135,378.699 2352.76,378.699 
  "/>
<polyline clip-path="url(#clip9202)" style="stroke:#000000; stroke-width:2; stroke-opacity:0.1; fill:none" points="
  229.135,263.424 2352.76,263.424 
  "/>
<polyline clip-path="url(#clip9202)" style="stroke:#000000; stroke-width:2; stroke-opacity:0.1; fill:none" points="
  229.135,148.148 2352.76,148.148 
  "/>
<polyline clip-path="url(#clip9200)" style="stroke:#000000; stroke-width:4; stroke-opacity:1; fill:none" points="
  229.135,625.619 2352.76,625.619 
  "/>
<polyline clip-path="url(#clip9200)" style="stroke:#000000; stroke-width:4; stroke-opacity:1; fill:none" points="
  229.135,625.619 229.135,47.2441 
  "/>
<polyline clip-path="url(#clip9200)" style="stroke:#000000; stroke-width:4; stroke-opacity:1; fill:none" points="
  289.238,625.619 289.238,618.678 
  "/>
<polyline clip-path="url(#clip9200)" style="stroke:#000000; stroke-width:4; stroke-opacity:1; fill:none" points="
  790.092,625.619 790.092,618.678 
  "/>
<polyline clip-path="url(#clip9200)" style="stroke:#000000; stroke-width:4; stroke-opacity:1; fill:none" points="
  1290.95,625.619 1290.95,618.678 
  "/>
<polyline clip-path="url(#clip9200)" style="stroke:#000000; stroke-width:4; stroke-opacity:1; fill:none" points="
  1791.8,625.619 1791.8,618.678 
  "/>
<polyline clip-path="url(#clip9200)" style="stroke:#000000; stroke-width:4; stroke-opacity:1; fill:none" points="
  2292.65,625.619 2292.65,618.678 
  "/>
<polyline clip-path="url(#clip9200)" style="stroke:#000000; stroke-width:4; stroke-opacity:1; fill:none" points="
  229.135,609.25 254.619,609.25 
  "/>
<polyline clip-path="url(#clip9200)" style="stroke:#000000; stroke-width:4; stroke-opacity:1; fill:none" points="
  229.135,493.974 254.619,493.974 
  "/>
<polyline clip-path="url(#clip9200)" style="stroke:#000000; stroke-width:4; stroke-opacity:1; fill:none" points="
  229.135,378.699 254.619,378.699 
  "/>
<polyline clip-path="url(#clip9200)" style="stroke:#000000; stroke-width:4; stroke-opacity:1; fill:none" points="
  229.135,263.424 254.619,263.424 
  "/>
<polyline clip-path="url(#clip9200)" style="stroke:#000000; stroke-width:4; stroke-opacity:1; fill:none" points="
  229.135,148.148 254.619,148.148 
  "/>
<g clip-path="url(#clip9200)">
<text style="fill:#000000; fill-opacity:1; font-family:Arial,Helvetica Neue,Helvetica,sans-serif; font-size:48px; text-anchor:middle;" transform="rotate(0, 289.238, 679.619)" x="289.238" y="679.619">300</text>
</g>
<g clip-path="url(#clip9200)">
<text style="fill:#000000; fill-opacity:1; font-family:Arial,Helvetica Neue,Helvetica,sans-serif; font-size:48px; text-anchor:middle;" transform="rotate(0, 790.092, 679.619)" x="790.092" y="679.619">400</text>
</g>
<g clip-path="url(#clip9200)">
<text style="fill:#000000; fill-opacity:1; font-family:Arial,Helvetica Neue,Helvetica,sans-serif; font-size:48px; text-anchor:middle;" transform="rotate(0, 1290.95, 679.619)" x="1290.95" y="679.619">500</text>
</g>
<g clip-path="url(#clip9200)">
<text style="fill:#000000; fill-opacity:1; font-family:Arial,Helvetica Neue,Helvetica,sans-serif; font-size:48px; text-anchor:middle;" transform="rotate(0, 1791.8, 679.619)" x="1791.8" y="679.619">600</text>
</g>
<g clip-path="url(#clip9200)">
<text style="fill:#000000; fill-opacity:1; font-family:Arial,Helvetica Neue,Helvetica,sans-serif; font-size:48px; text-anchor:middle;" transform="rotate(0, 2292.65, 679.619)" x="2292.65" y="679.619">700</text>
</g>
<g clip-path="url(#clip9200)">
<text style="fill:#000000; fill-opacity:1; font-family:Arial,Helvetica Neue,Helvetica,sans-serif; font-size:48px; text-anchor:end;" transform="rotate(0, 205.135, 626.75)" x="205.135" y="626.75">0</text>
</g>
<g clip-path="url(#clip9200)">
<text style="fill:#000000; fill-opacity:1; font-family:Arial,Helvetica Neue,Helvetica,sans-serif; font-size:48px; text-anchor:end;" transform="rotate(0, 205.135, 511.474)" x="205.135" y="511.474">30</text>
</g>
<g clip-path="url(#clip9200)">
<text style="fill:#000000; fill-opacity:1; font-family:Arial,Helvetica Neue,Helvetica,sans-serif; font-size:48px; text-anchor:end;" transform="rotate(0, 205.135, 396.199)" x="205.135" y="396.199">60</text>
</g>
<g clip-path="url(#clip9200)">
<text style="fill:#000000; fill-opacity:1; font-family:Arial,Helvetica Neue,Helvetica,sans-serif; font-size:48px; text-anchor:end;" transform="rotate(0, 205.135, 280.924)" x="205.135" y="280.924">90</text>
</g>
<g clip-path="url(#clip9200)">
<text style="fill:#000000; fill-opacity:1; font-family:Arial,Helvetica Neue,Helvetica,sans-serif; font-size:48px; text-anchor:end;" transform="rotate(0, 205.135, 165.648)" x="205.135" y="165.648">120</text>
</g>
<g clip-path="url(#clip9200)">
<text style="fill:#000000; fill-opacity:1; font-family:Arial,Helvetica Neue,Helvetica,sans-serif; font-size:66px; text-anchor:middle;" transform="rotate(0, 1290.95, 759.48)" x="1290.95" y="759.48">macrosteps to reach M &gt; 0.96</text>
</g>
<g clip-path="url(#clip9200)">
<text style="fill:#000000; fill-opacity:1; font-family:Arial,Helvetica Neue,Helvetica,sans-serif; font-size:66px; text-anchor:middle;" transform="rotate(-90, 89.2861, 336.431)" x="89.2861" y="336.431">frequency</text>
</g>
<path clip-path="url(#clip9202)" d="
M289.238 601.565 L289.238 609.25 L389.409 609.25 L389.409 601.565 L289.238 601.565 L289.238 601.565  Z
  " fill="#eb0041" fill-rule="evenodd" fill-opacity="1"/>
<polyline clip-path="url(#clip9202)" style="stroke:#ffffff; stroke-width:4; stroke-opacity:1; fill:none" points="
  289.238,601.565 289.238,609.25 389.409,609.25 389.409,601.565 289.238,601.565 
  "/>
<path clip-path="url(#clip9202)" d="
M389.409 578.509 L389.409 609.25 L489.579 609.25 L489.579 578.509 L389.409 578.509 L389.409 578.509  Z
  " fill="#eb0041" fill-rule="evenodd" fill-opacity="1"/>
<polyline clip-path="url(#clip9202)" style="stroke:#ffffff; stroke-width:4; stroke-opacity:1; fill:none" points="
  389.409,578.509 389.409,609.25 489.579,609.25 489.579,578.509 389.409,578.509 
  "/>
<path clip-path="url(#clip9202)" d="
M489.579 559.297 L489.579 609.25 L589.75 609.25 L589.75 559.297 L489.579 559.297 L489.579 559.297  Z
  " fill="#eb0041" fill-rule="evenodd" fill-opacity="1"/>
<polyline clip-path="url(#clip9202)" style="stroke:#ffffff; stroke-width:4; stroke-opacity:1; fill:none" points="
  489.579,559.297 489.579,609.25 589.75,609.25 589.75,559.297 489.579,559.297 
  "/>
<path clip-path="url(#clip9202)" d="
M589.75 436.337 L589.75 609.25 L689.921 609.25 L689.921 436.337 L589.75 436.337 L589.75 436.337  Z
  " fill="#eb0041" fill-rule="evenodd" fill-opacity="1"/>
<polyline clip-path="url(#clip9202)" style="stroke:#ffffff; stroke-width:4; stroke-opacity:1; fill:none" points="
  589.75,436.337 589.75,609.25 689.921,609.25 689.921,436.337 589.75,436.337 
  "/>
<path clip-path="url(#clip9202)" d="
M689.921 259.581 L689.921 609.25 L790.092 609.25 L790.092 259.581 L689.921 259.581 L689.921 259.581  Z
  " fill="#eb0041" fill-rule="evenodd" fill-opacity="1"/>
<polyline clip-path="url(#clip9202)" style="stroke:#ffffff; stroke-width:4; stroke-opacity:1; fill:none" points="
  689.921,259.581 689.921,609.25 790.092,609.25 790.092,259.581 689.921,259.581 
  "/>
<path clip-path="url(#clip9202)" d="
M790.092 144.306 L790.092 609.25 L890.262 609.25 L890.262 144.306 L790.092 144.306 L790.092 144.306  Z
  " fill="#eb0041" fill-rule="evenodd" fill-opacity="1"/>
<polyline clip-path="url(#clip9202)" style="stroke:#ffffff; stroke-width:4; stroke-opacity:1; fill:none" points="
  790.092,144.306 790.092,609.25 890.262,609.25 890.262,144.306 790.092,144.306 
  "/>
<path clip-path="url(#clip9202)" d="
M890.262 132.778 L890.262 609.25 L990.433 609.25 L990.433 132.778 L890.262 132.778 L890.262 132.778  Z
  " fill="#eb0041" fill-rule="evenodd" fill-opacity="1"/>
<polyline clip-path="url(#clip9202)" style="stroke:#ffffff; stroke-width:4; stroke-opacity:1; fill:none" points="
  890.262,132.778 890.262,609.25 990.433,609.25 990.433,132.778 890.262,132.778 
  "/>
<path clip-path="url(#clip9202)" d="
M990.433 63.6132 L990.433 609.25 L1090.6 609.25 L1090.6 63.6132 L990.433 63.6132 L990.433 63.6132  Z
  " fill="#eb0041" fill-rule="evenodd" fill-opacity="1"/>
<polyline clip-path="url(#clip9202)" style="stroke:#ffffff; stroke-width:4; stroke-opacity:1; fill:none" points="
  990.433,63.6132 990.433,609.25 1090.6,609.25 1090.6,63.6132 990.433,63.6132 
  "/>
<path clip-path="url(#clip9202)" d="
M1090.6 125.093 L1090.6 609.25 L1190.77 609.25 L1190.77 125.093 L1090.6 125.093 L1090.6 125.093  Z
  " fill="#eb0041" fill-rule="evenodd" fill-opacity="1"/>
<polyline clip-path="url(#clip9202)" style="stroke:#ffffff; stroke-width:4; stroke-opacity:1; fill:none" points="
  1090.6,125.093 1090.6,609.25 1190.77,609.25 1190.77,125.093 1090.6,125.093 
  "/>
<path clip-path="url(#clip9202)" d="
M1190.77 194.259 L1190.77 609.25 L1290.95 609.25 L1290.95 194.259 L1190.77 194.259 L1190.77 194.259  Z
  " fill="#eb0041" fill-rule="evenodd" fill-opacity="1"/>
<polyline clip-path="url(#clip9202)" style="stroke:#ffffff; stroke-width:4; stroke-opacity:1; fill:none" points="
  1190.77,194.259 1190.77,609.25 1290.95,609.25 1290.95,194.259 1190.77,194.259 
  "/>
<path clip-path="url(#clip9202)" d="
M1290.95 248.054 L1290.95 609.25 L1391.12 609.25 L1391.12 248.054 L1290.95 248.054 L1290.95 248.054  Z
  " fill="#eb0041" fill-rule="evenodd" fill-opacity="1"/>
<polyline clip-path="url(#clip9202)" style="stroke:#ffffff; stroke-width:4; stroke-opacity:1; fill:none" points="
  1290.95,248.054 1290.95,609.25 1391.12,609.25 1391.12,248.054 1290.95,248.054 
  "/>
<path clip-path="url(#clip9202)" d="
M1391.12 409.439 L1391.12 609.25 L1491.29 609.25 L1491.29 409.439 L1391.12 409.439 L1391.12 409.439  Z
  " fill="#eb0041" fill-rule="evenodd" fill-opacity="1"/>
<polyline clip-path="url(#clip9202)" style="stroke:#ffffff; stroke-width:4; stroke-opacity:1; fill:none" points="
  1391.12,409.439 1391.12,609.25 1491.29,609.25 1491.29,409.439 1391.12,409.439 
  "/>
<path clip-path="url(#clip9202)" d="
M1491.29 505.502 L1491.29 609.25 L1591.46 609.25 L1591.46 505.502 L1491.29 505.502 L1491.29 505.502  Z
  " fill="#eb0041" fill-rule="evenodd" fill-opacity="1"/>
<polyline clip-path="url(#clip9202)" style="stroke:#ffffff; stroke-width:4; stroke-opacity:1; fill:none" points="
  1491.29,505.502 1491.29,609.25 1591.46,609.25 1591.46,505.502 1491.29,505.502 
  "/>
<path clip-path="url(#clip9202)" d="
M1591.46 524.714 L1591.46 609.25 L1691.63 609.25 L1691.63 524.714 L1591.46 524.714 L1591.46 524.714  Z
  " fill="#eb0041" fill-rule="evenodd" fill-opacity="1"/>
<polyline clip-path="url(#clip9202)" style="stroke:#ffffff; stroke-width:4; stroke-opacity:1; fill:none" points="
  1591.46,524.714 1591.46,609.25 1691.63,609.25 1691.63,524.714 1591.46,524.714 
  "/>
<path clip-path="url(#clip9202)" d="
M1691.63 566.982 L1691.63 609.25 L1791.8 609.25 L1791.8 566.982 L1691.63 566.982 L1691.63 566.982  Z
  " fill="#eb0041" fill-rule="evenodd" fill-opacity="1"/>
<polyline clip-path="url(#clip9202)" style="stroke:#ffffff; stroke-width:4; stroke-opacity:1; fill:none" points="
  1691.63,566.982 1691.63,609.25 1791.8,609.25 1791.8,566.982 1691.63,566.982 
  "/>
<path clip-path="url(#clip9202)" d="
M1791.8 582.352 L1791.8 609.25 L1891.97 609.25 L1891.97 582.352 L1791.8 582.352 L1791.8 582.352  Z
  " fill="#eb0041" fill-rule="evenodd" fill-opacity="1"/>
<polyline clip-path="url(#clip9202)" style="stroke:#ffffff; stroke-width:4; stroke-opacity:1; fill:none" points="
  1791.8,582.352 1791.8,609.25 1891.97,609.25 1891.97,582.352 1791.8,582.352 
  "/>
<path clip-path="url(#clip9202)" d="
M1891.97 590.037 L1891.97 609.25 L1992.14 609.25 L1992.14 590.037 L1891.97 590.037 L1891.97 590.037  Z
  " fill="#eb0041" fill-rule="evenodd" fill-opacity="1"/>
<polyline clip-path="url(#clip9202)" style="stroke:#ffffff; stroke-width:4; stroke-opacity:1; fill:none" points="
  1891.97,590.037 1891.97,609.25 1992.14,609.25 1992.14,590.037 1891.97,590.037 
  "/>
<path clip-path="url(#clip9202)" d="
M1992.14 601.565 L1992.14 609.25 L2092.31 609.25 L2092.31 601.565 L1992.14 601.565 L1992.14 601.565  Z
  " fill="#eb0041" fill-rule="evenodd" fill-opacity="1"/>
<polyline clip-path="url(#clip9202)" style="stroke:#ffffff; stroke-width:4; stroke-opacity:1; fill:none" points="
  1992.14,601.565 1992.14,609.25 2092.31,609.25 2092.31,601.565 1992.14,601.565 
  "/>
<g clip-path="url(#clip9200)">
<text style="fill:#000000; fill-opacity:1; font-family:Arial,Helvetica Neue,Helvetica,sans-serif; font-size:84px; text-anchor:middle;" transform="rotate(0, 1791.8, 255.499)" x="1791.8" y="255.499">ponds</text>
</g>
<path clip-path="url(#clip9200)" d="
M229.135 1425.62 L2352.76 1425.62 L2352.76 847.244 L229.135 847.244  Z
  " fill="#ffffff" fill-rule="evenodd" fill-opacity="1"/>
<defs>
  <clipPath id="clip9203">
    <rect x="229" y="847" width="2125" height="579"/>
  </clipPath>
</defs>
<polyline clip-path="url(#clip9203)" style="stroke:#000000; stroke-width:2; stroke-opacity:0.1; fill:none" points="
  345.938,1425.62 345.938,847.244 
  "/>
<polyline clip-path="url(#clip9203)" style="stroke:#000000; stroke-width:2; stroke-opacity:0.1; fill:none" points="
  705.941,1425.62 705.941,847.244 
  "/>
<polyline clip-path="url(#clip9203)" style="stroke:#000000; stroke-width:2; stroke-opacity:0.1; fill:none" points="
  1065.94,1425.62 1065.94,847.244 
  "/>
<polyline clip-path="url(#clip9203)" style="stroke:#000000; stroke-width:2; stroke-opacity:0.1; fill:none" points="
  1425.95,1425.62 1425.95,847.244 
  "/>
<polyline clip-path="url(#clip9203)" style="stroke:#000000; stroke-width:2; stroke-opacity:0.1; fill:none" points="
  1785.95,1425.62 1785.95,847.244 
  "/>
<polyline clip-path="url(#clip9203)" style="stroke:#000000; stroke-width:2; stroke-opacity:0.1; fill:none" points="
  2145.95,1425.62 2145.95,847.244 
  "/>
<polyline clip-path="url(#clip9203)" style="stroke:#000000; stroke-width:2; stroke-opacity:0.1; fill:none" points="
  229.135,1409.25 2352.76,1409.25 
  "/>
<polyline clip-path="url(#clip9203)" style="stroke:#000000; stroke-width:2; stroke-opacity:0.1; fill:none" points="
  229.135,1269.34 2352.76,1269.34 
  "/>
<polyline clip-path="url(#clip9203)" style="stroke:#000000; stroke-width:2; stroke-opacity:0.1; fill:none" points="
  229.135,1129.44 2352.76,1129.44 
  "/>
<polyline clip-path="url(#clip9203)" style="stroke:#000000; stroke-width:2; stroke-opacity:0.1; fill:none" points="
  229.135,989.529 2352.76,989.529 
  "/>
<polyline clip-path="url(#clip9203)" style="stroke:#000000; stroke-width:2; stroke-opacity:0.1; fill:none" points="
  229.135,849.623 2352.76,849.623 
  "/>
<polyline clip-path="url(#clip9200)" style="stroke:#000000; stroke-width:4; stroke-opacity:1; fill:none" points="
  229.135,1425.62 2352.76,1425.62 
  "/>
<polyline clip-path="url(#clip9200)" style="stroke:#000000; stroke-width:4; stroke-opacity:1; fill:none" points="
  229.135,1425.62 229.135,847.244 
  "/>
<polyline clip-path="url(#clip9200)" style="stroke:#000000; stroke-width:4; stroke-opacity:1; fill:none" points="
  345.938,1425.62 345.938,1418.68 
  "/>
<polyline clip-path="url(#clip9200)" style="stroke:#000000; stroke-width:4; stroke-opacity:1; fill:none" points="
  705.941,1425.62 705.941,1418.68 
  "/>
<polyline clip-path="url(#clip9200)" style="stroke:#000000; stroke-width:4; stroke-opacity:1; fill:none" points="
  1065.94,1425.62 1065.94,1418.68 
  "/>
<polyline clip-path="url(#clip9200)" style="stroke:#000000; stroke-width:4; stroke-opacity:1; fill:none" points="
  1425.95,1425.62 1425.95,1418.68 
  "/>
<polyline clip-path="url(#clip9200)" style="stroke:#000000; stroke-width:4; stroke-opacity:1; fill:none" points="
  1785.95,1425.62 1785.95,1418.68 
  "/>
<polyline clip-path="url(#clip9200)" style="stroke:#000000; stroke-width:4; stroke-opacity:1; fill:none" points="
  2145.95,1425.62 2145.95,1418.68 
  "/>
<polyline clip-path="url(#clip9200)" style="stroke:#000000; stroke-width:4; stroke-opacity:1; fill:none" points="
  229.135,1409.25 254.619,1409.25 
  "/>
<polyline clip-path="url(#clip9200)" style="stroke:#000000; stroke-width:4; stroke-opacity:1; fill:none" points="
  229.135,1269.34 254.619,1269.34 
  "/>
<polyline clip-path="url(#clip9200)" style="stroke:#000000; stroke-width:4; stroke-opacity:1; fill:none" points="
  229.135,1129.44 254.619,1129.44 
  "/>
<polyline clip-path="url(#clip9200)" style="stroke:#000000; stroke-width:4; stroke-opacity:1; fill:none" points="
  229.135,989.529 254.619,989.529 
  "/>
<polyline clip-path="url(#clip9200)" style="stroke:#000000; stroke-width:4; stroke-opacity:1; fill:none" points="
  229.135,849.623 254.619,849.623 
  "/>
<g clip-path="url(#clip9200)">
<text style="fill:#000000; fill-opacity:1; font-family:Arial,Helvetica Neue,Helvetica,sans-serif; font-size:48px; text-anchor:middle;" transform="rotate(0, 345.938, 1479.62)" x="345.938" y="1479.62">0</text>
</g>
<g clip-path="url(#clip9200)">
<text style="fill:#000000; fill-opacity:1; font-family:Arial,Helvetica Neue,Helvetica,sans-serif; font-size:48px; text-anchor:middle;" transform="rotate(0, 705.941, 1479.62)" x="705.941" y="1479.62">20,000</text>
</g>
<g clip-path="url(#clip9200)">
<text style="fill:#000000; fill-opacity:1; font-family:Arial,Helvetica Neue,Helvetica,sans-serif; font-size:48px; text-anchor:middle;" transform="rotate(0, 1065.94, 1479.62)" x="1065.94" y="1479.62">40,000</text>
</g>
<g clip-path="url(#clip9200)">
<text style="fill:#000000; fill-opacity:1; font-family:Arial,Helvetica Neue,Helvetica,sans-serif; font-size:48px; text-anchor:middle;" transform="rotate(0, 1425.95, 1479.62)" x="1425.95" y="1479.62">60,000</text>
</g>
<g clip-path="url(#clip9200)">
<text style="fill:#000000; fill-opacity:1; font-family:Arial,Helvetica Neue,Helvetica,sans-serif; font-size:48px; text-anchor:middle;" transform="rotate(0, 1785.95, 1479.62)" x="1785.95" y="1479.62">80,000</text>
</g>
<g clip-path="url(#clip9200)">
<text style="fill:#000000; fill-opacity:1; font-family:Arial,Helvetica Neue,Helvetica,sans-serif; font-size:48px; text-anchor:middle;" transform="rotate(0, 2145.95, 1479.62)" x="2145.95" y="1479.62">100,000</text>
</g>
<g clip-path="url(#clip9200)">
<text style="fill:#000000; fill-opacity:1; font-family:Arial,Helvetica Neue,Helvetica,sans-serif; font-size:48px; text-anchor:end;" transform="rotate(0, 205.135, 1426.75)" x="205.135" y="1426.75">0</text>
</g>
<g clip-path="url(#clip9200)">
<text style="fill:#000000; fill-opacity:1; font-family:Arial,Helvetica Neue,Helvetica,sans-serif; font-size:48px; text-anchor:end;" transform="rotate(0, 205.135, 1286.84)" x="205.135" y="1286.84">50</text>
</g>
<g clip-path="url(#clip9200)">
<text style="fill:#000000; fill-opacity:1; font-family:Arial,Helvetica Neue,Helvetica,sans-serif; font-size:48px; text-anchor:end;" transform="rotate(0, 205.135, 1146.94)" x="205.135" y="1146.94">100</text>
</g>
<g clip-path="url(#clip9200)">
<text style="fill:#000000; fill-opacity:1; font-family:Arial,Helvetica Neue,Helvetica,sans-serif; font-size:48px; text-anchor:end;" transform="rotate(0, 205.135, 1007.03)" x="205.135" y="1007.03">150</text>
</g>
<g clip-path="url(#clip9200)">
<text style="fill:#000000; fill-opacity:1; font-family:Arial,Helvetica Neue,Helvetica,sans-serif; font-size:48px; text-anchor:end;" transform="rotate(0, 205.135, 867.123)" x="205.135" y="867.123">200</text>
</g>
<g clip-path="url(#clip9200)">
<text style="fill:#000000; fill-opacity:1; font-family:Arial,Helvetica Neue,Helvetica,sans-serif; font-size:66px; text-anchor:middle;" transform="rotate(0, 1290.95, 1559.48)" x="1290.95" y="1559.48">macrosteps to reach M &gt; 0.96</text>
</g>
<g clip-path="url(#clip9200)">
<text style="fill:#000000; fill-opacity:1; font-family:Arial,Helvetica Neue,Helvetica,sans-serif; font-size:66px; text-anchor:middle;" transform="rotate(-90, 89.2861, 1136.43)" x="89.2861" y="1136.43">frequency</text>
</g>
<path clip-path="url(#clip9203)" d="
M345.938 913.98 L345.938 1409.25 L435.939 1409.25 L435.939 913.98 L345.938 913.98 L345.938 913.98  Z
  " fill="#4100eb" fill-rule="evenodd" fill-opacity="1"/>
<polyline clip-path="url(#clip9203)" style="stroke:#ffffff; stroke-width:4; stroke-opacity:1; fill:none" points="
  345.938,913.98 345.938,1409.25 435.939,1409.25 435.939,913.98 345.938,913.98 
  "/>
<path clip-path="url(#clip9203)" d="
M435.939 863.613 L435.939 1409.25 L525.94 1409.25 L525.94 863.613 L435.939 863.613 L435.939 863.613  Z
  " fill="#4100eb" fill-rule="evenodd" fill-opacity="1"/>
<polyline clip-path="url(#clip9203)" style="stroke:#ffffff; stroke-width:4; stroke-opacity:1; fill:none" points="
  435.939,863.613 435.939,1409.25 525.94,1409.25 525.94,863.613 435.939,863.613 
  "/>
<path clip-path="url(#clip9203)" d="
M525.94 1109.85 L525.94 1409.25 L615.94 1409.25 L615.94 1109.85 L525.94 1109.85 L525.94 1109.85  Z
  " fill="#4100eb" fill-rule="evenodd" fill-opacity="1"/>
<polyline clip-path="url(#clip9203)" style="stroke:#ffffff; stroke-width:4; stroke-opacity:1; fill:none" points="
  525.94,1109.85 525.94,1409.25 615.94,1409.25 615.94,1109.85 525.94,1109.85 
  "/>
<path clip-path="url(#clip9203)" d="
M615.94 1165.81 L615.94 1409.25 L705.941 1409.25 L705.941 1165.81 L615.94 1165.81 L615.94 1165.81  Z
  " fill="#4100eb" fill-rule="evenodd" fill-opacity="1"/>
<polyline clip-path="url(#clip9203)" style="stroke:#ffffff; stroke-width:4; stroke-opacity:1; fill:none" points="
  615.94,1165.81 615.94,1409.25 705.941,1409.25 705.941,1165.81 615.94,1165.81 
  "/>
<path clip-path="url(#clip9203)" d="
M705.941 1204.99 L705.941 1409.25 L795.942 1409.25 L795.942 1204.99 L705.941 1204.99 L705.941 1204.99  Z
  " fill="#4100eb" fill-rule="evenodd" fill-opacity="1"/>
<polyline clip-path="url(#clip9203)" style="stroke:#ffffff; stroke-width:4; stroke-opacity:1; fill:none" points="
  705.941,1204.99 705.941,1409.25 795.942,1409.25 795.942,1204.99 705.941,1204.99 
  "/>
<path clip-path="url(#clip9203)" d="
M795.942 1246.96 L795.942 1409.25 L885.942 1409.25 L885.942 1246.96 L795.942 1246.96 L795.942 1246.96  Z
  " fill="#4100eb" fill-rule="evenodd" fill-opacity="1"/>
<polyline clip-path="url(#clip9203)" style="stroke:#ffffff; stroke-width:4; stroke-opacity:1; fill:none" points="
  795.942,1246.96 795.942,1409.25 885.942,1409.25 885.942,1246.96 795.942,1246.96 
  "/>
<path clip-path="url(#clip9203)" d="
M885.942 1246.96 L885.942 1409.25 L975.943 1409.25 L975.943 1246.96 L885.942 1246.96 L885.942 1246.96  Z
  " fill="#4100eb" fill-rule="evenodd" fill-opacity="1"/>
<polyline clip-path="url(#clip9203)" style="stroke:#ffffff; stroke-width:4; stroke-opacity:1; fill:none" points="
  885.942,1246.96 885.942,1409.25 975.943,1409.25 975.943,1246.96 885.942,1246.96 
  "/>
<path clip-path="url(#clip9203)" d="
M975.943 1302.92 L975.943 1409.25 L1065.94 1409.25 L1065.94 1302.92 L975.943 1302.92 L975.943 1302.92  Z
  " fill="#4100eb" fill-rule="evenodd" fill-opacity="1"/>
<polyline clip-path="url(#clip9203)" style="stroke:#ffffff; stroke-width:4; stroke-opacity:1; fill:none" points="
  975.943,1302.92 975.943,1409.25 1065.94,1409.25 1065.94,1302.92 975.943,1302.92 
  "/>
<path clip-path="url(#clip9203)" d="
M1065.94 1342.09 L1065.94 1409.25 L1155.94 1409.25 L1155.94 1342.09 L1065.94 1342.09 L1065.94 1342.09  Z
  " fill="#4100eb" fill-rule="evenodd" fill-opacity="1"/>
<polyline clip-path="url(#clip9203)" style="stroke:#ffffff; stroke-width:4; stroke-opacity:1; fill:none" points="
  1065.94,1342.09 1065.94,1409.25 1155.94,1409.25 1155.94,1342.09 1065.94,1342.09 
  "/>
<path clip-path="url(#clip9203)" d="
M1155.94 1319.71 L1155.94 1409.25 L1245.95 1409.25 L1245.95 1319.71 L1155.94 1319.71 L1155.94 1319.71  Z
  " fill="#4100eb" fill-rule="evenodd" fill-opacity="1"/>
<polyline clip-path="url(#clip9203)" style="stroke:#ffffff; stroke-width:4; stroke-opacity:1; fill:none" points="
  1155.94,1319.71 1155.94,1409.25 1245.95,1409.25 1245.95,1319.71 1155.94,1319.71 
  "/>
<path clip-path="url(#clip9203)" d="
M1245.95 1358.88 L1245.95 1409.25 L1335.95 1409.25 L1335.95 1358.88 L1245.95 1358.88 L1245.95 1358.88  Z
  " fill="#4100eb" fill-rule="evenodd" fill-opacity="1"/>
<polyline clip-path="url(#clip9203)" style="stroke:#ffffff; stroke-width:4; stroke-opacity:1; fill:none" points="
  1245.95,1358.88 1245.95,1409.25 1335.95,1409.25 1335.95,1358.88 1245.95,1358.88 
  "/>
<path clip-path="url(#clip9203)" d="
M1335.95 1344.89 L1335.95 1409.25 L1425.95 1409.25 L1425.95 1344.89 L1335.95 1344.89 L1335.95 1344.89  Z
  " fill="#4100eb" fill-rule="evenodd" fill-opacity="1"/>
<polyline clip-path="url(#clip9203)" style="stroke:#ffffff; stroke-width:4; stroke-opacity:1; fill:none" points="
  1335.95,1344.89 1335.95,1409.25 1425.95,1409.25 1425.95,1344.89 1335.95,1344.89 
  "/>
<path clip-path="url(#clip9203)" d="
M1425.95 1389.66 L1425.95 1409.25 L1515.95 1409.25 L1515.95 1389.66 L1425.95 1389.66 L1425.95 1389.66  Z
  " fill="#4100eb" fill-rule="evenodd" fill-opacity="1"/>
<polyline clip-path="url(#clip9203)" style="stroke:#ffffff; stroke-width:4; stroke-opacity:1; fill:none" points="
  1425.95,1389.66 1425.95,1409.25 1515.95,1409.25 1515.95,1389.66 1425.95,1389.66 
  "/>
<path clip-path="url(#clip9203)" d="
M1515.95 1367.28 L1515.95 1409.25 L1605.95 1409.25 L1605.95 1367.28 L1515.95 1367.28 L1515.95 1367.28  Z
  " fill="#4100eb" fill-rule="evenodd" fill-opacity="1"/>
<polyline clip-path="url(#clip9203)" style="stroke:#ffffff; stroke-width:4; stroke-opacity:1; fill:none" points="
  1515.95,1367.28 1515.95,1409.25 1605.95,1409.25 1605.95,1367.28 1515.95,1367.28 
  "/>
<path clip-path="url(#clip9203)" d="
M1605.95 1370.08 L1605.95 1409.25 L1695.95 1409.25 L1695.95 1370.08 L1605.95 1370.08 L1605.95 1370.08  Z
  " fill="#4100eb" fill-rule="evenodd" fill-opacity="1"/>
<polyline clip-path="url(#clip9203)" style="stroke:#ffffff; stroke-width:4; stroke-opacity:1; fill:none" points="
  1605.95,1370.08 1605.95,1409.25 1695.95,1409.25 1695.95,1370.08 1605.95,1370.08 
  "/>
<path clip-path="url(#clip9203)" d="
M1695.95 1392.46 L1695.95 1409.25 L1785.95 1409.25 L1785.95 1392.46 L1695.95 1392.46 L1695.95 1392.46  Z
  " fill="#4100eb" fill-rule="evenodd" fill-opacity="1"/>
<polyline clip-path="url(#clip9203)" style="stroke:#ffffff; stroke-width:4; stroke-opacity:1; fill:none" points="
  1695.95,1392.46 1695.95,1409.25 1785.95,1409.25 1785.95,1392.46 1695.95,1392.46 
  "/>
<path clip-path="url(#clip9203)" d="
M1785.95 1381.27 L1785.95 1409.25 L1875.95 1409.25 L1875.95 1381.27 L1785.95 1381.27 L1785.95 1381.27  Z
  " fill="#4100eb" fill-rule="evenodd" fill-opacity="1"/>
<polyline clip-path="url(#clip9203)" style="stroke:#ffffff; stroke-width:4; stroke-opacity:1; fill:none" points="
  1785.95,1381.27 1785.95,1409.25 1875.95,1409.25 1875.95,1381.27 1785.95,1381.27 
  "/>
<path clip-path="url(#clip9203)" d="
M1875.95 1375.67 L1875.95 1409.25 L1965.95 1409.25 L1965.95 1375.67 L1875.95 1375.67 L1875.95 1375.67  Z
  " fill="#4100eb" fill-rule="evenodd" fill-opacity="1"/>
<polyline clip-path="url(#clip9203)" style="stroke:#ffffff; stroke-width:4; stroke-opacity:1; fill:none" points="
  1875.95,1375.67 1875.95,1409.25 1965.95,1409.25 1965.95,1375.67 1875.95,1375.67 
  "/>
<path clip-path="url(#clip9203)" d="
M1965.95 1381.27 L1965.95 1409.25 L2055.95 1409.25 L2055.95 1381.27 L1965.95 1381.27 L1965.95 1381.27  Z
  " fill="#4100eb" fill-rule="evenodd" fill-opacity="1"/>
<polyline clip-path="url(#clip9203)" style="stroke:#ffffff; stroke-width:4; stroke-opacity:1; fill:none" points="
  1965.95,1381.27 1965.95,1409.25 2055.95,1409.25 2055.95,1381.27 1965.95,1381.27 
  "/>
<path clip-path="url(#clip9203)" d="
M2055.95 1384.07 L2055.95 1409.25 L2145.95 1409.25 L2145.95 1384.07 L2055.95 1384.07 L2055.95 1384.07  Z
  " fill="#4100eb" fill-rule="evenodd" fill-opacity="1"/>
<polyline clip-path="url(#clip9203)" style="stroke:#ffffff; stroke-width:4; stroke-opacity:1; fill:none" points="
  2055.95,1384.07 2055.95,1409.25 2145.95,1409.25 2145.95,1384.07 2055.95,1384.07 
  "/>
<path clip-path="url(#clip9203)" d="
M2145.95 1333.7 L2145.95 1409.25 L2235.95 1409.25 L2235.95 1333.7 L2145.95 1333.7 L2145.95 1333.7  Z
  " fill="#4100eb" fill-rule="evenodd" fill-opacity="1"/>
<polyline clip-path="url(#clip9203)" style="stroke:#ffffff; stroke-width:4; stroke-opacity:1; fill:none" points="
  2145.95,1333.7 2145.95,1409.25 2235.95,1409.25 2235.95,1333.7 2145.95,1333.7 
  "/>
<g clip-path="url(#clip9200)">
<text style="fill:#000000; fill-opacity:1; font-family:Arial,Helvetica Neue,Helvetica,sans-serif; font-size:84px; text-anchor:middle;" transform="rotate(0, 1425.95, 1020.03)" x="1425.95" y="1020.03">rivers</text>
</g>
</svg>
